<?xml version="1.0" standalone="no"?>
<!DOCTYPE svg PUBLIC "-//W3C//DTD SVG 20010904//EN"
 "http://www.w3.org/TR/2001/REC-SVG-20010904/DTD/svg10.dtd">
<svg version="1.0" xmlns="http://www.w3.org/2000/svg"
 width="2275.000000pt" height="2275.000000pt" viewBox="0 0 2275.000000 2275.000000"
 preserveAspectRatio="xMidYMid meet">
<metadata>
Created by potrace 1.11, written by Peter Selinger 2001-2013
</metadata>
<g transform="translate(0.000000,2275.000000) scale(0.100000,-0.100000)"
fill="#000000" stroke="none">
<path d="M11917 22744 c-1 -1 -130 -5 -287 -8 -157 -4 -298 -8 -315 -10 -16
-3 -77 -7 -135 -11 -58 -3 -125 -8 -150 -10 -133 -11 -208 -18 -235 -21 -16
-1 -66 -6 -109 -9 -43 -3 -93 -8 -110 -10 -17 -2 -58 -7 -91 -10 -33 -3 -94
-10 -135 -15 -41 -5 -102 -12 -135 -16 -33 -3 -67 -8 -75 -9 -8 -2 -44 -6 -80
-10 -36 -4 -67 -8 -70 -10 -3 -2 -33 -6 -67 -10 -34 -3 -70 -7 -80 -9 -17 -3
-75 -13 -133 -21 -49 -8 -97 -16 -210 -36 -63 -12 -126 -23 -140 -25 -42 -7
-118 -24 -270 -61 -79 -19 -151 -36 -160 -38 -8 -2 -34 -10 -58 -19 -23 -8
-46 -16 -50 -16 -44 -4 -284 -88 -422 -147 -191 -83 -336 -167 -480 -282 -373
-296 -669 -674 -766 -978 -32 -101 -40 -159 -49 -378 -3 -71 -7 -161 -10 -200
-3 -38 -7 -133 -11 -210 -3 -77 -7 -180 -9 -230 -51 -1164 -78 -2700 -77
-4415 0 -741 8 -1963 17 -2635 9 -690 16 -1126 20 -1345 3 -129 7 -365 10
-525 7 -372 13 -734 20 -1050 3 -137 7 -376 10 -530 3 -154 7 -379 10 -500 2
-121 7 -341 10 -490 9 -448 23 -1026 30 -1265 3 -91 7 -241 10 -335 2 -93 7
-237 10 -320 3 -82 7 -217 10 -300 2 -82 7 -202 9 -265 3 -63 8 -178 11 -255
3 -76 8 -173 10 -215 2 -41 7 -140 10 -220 4 -80 8 -167 10 -194 2 -26 6 -107
9 -180 4 -72 9 -158 11 -191 3 -33 7 -107 10 -165 12 -219 15 -257 19 -320 13
-165 18 -239 21 -285 4 -74 15 -224 20 -275 3 -25 7 -81 10 -125 3 -44 7 -98
10 -120 2 -22 7 -80 10 -130 4 -49 8 -101 10 -115 2 -14 7 -61 10 -105 3 -44
8 -96 10 -115 2 -19 7 -66 10 -105 4 -38 8 -88 10 -110 2 -22 7 -69 10 -105 6
-66 11 -114 20 -185 2 -22 7 -67 10 -100 4 -33 8 -76 10 -95 2 -19 7 -62 10
-95 3 -33 8 -73 10 -90 2 -16 9 -73 15 -125 6 -52 13 -108 15 -125 2 -16 7
-57 10 -90 30 -290 150 -526 396 -774 282 -285 621 -489 1036 -625 139 -45
348 -102 413 -112 19 -3 38 -8 41 -10 3 -2 19 -6 35 -8 16 -3 40 -8 54 -11 14
-2 48 -9 75 -15 28 -5 66 -12 85 -15 19 -4 98 -17 175 -30 77 -13 165 -26 195
-30 30 -4 62 -9 71 -10 9 -2 40 -6 70 -9 30 -4 70 -9 89 -11 80 -10 118 -15
180 -20 36 -3 91 -8 124 -11 306 -30 943 -35 1181 -9 17 2 62 6 100 9 39 4 88
9 110 11 22 2 67 7 100 10 33 3 71 8 85 10 14 3 48 7 75 10 28 4 75 10 105 15
30 5 71 11 90 14 19 3 49 8 65 11 17 3 57 10 90 16 81 14 299 57 316 63 8 3
28 7 44 10 17 2 80 16 140 31 61 15 117 28 125 30 153 32 812 242 1060 338
617 239 933 512 1085 935 26 74 61 207 70 268 4 21 8 46 10 54 2 8 7 42 11 75
3 33 8 67 9 75 5 24 16 194 20 305 4 91 9 281 20 765 7 301 15 599 20 765 3
88 7 241 10 340 3 99 8 254 10 345 3 91 8 231 10 310 12 404 16 525 20 630 2
63 7 203 10 310 4 107 8 242 10 300 2 58 6 184 9 280 3 96 8 236 11 310 8 199
14 383 20 580 3 96 7 227 10 290 8 195 15 398 20 560 13 400 24 714 30 870 3
74 7 207 10 295 3 88 7 225 10 305 6 170 13 395 20 640 3 96 7 252 10 345 9
271 15 506 20 695 2 96 7 272 10 390 51 1956 63 4232 30 5780 -3 107 -7 299
-9 425 -3 127 -8 302 -10 390 -3 88 -8 243 -11 345 -6 203 -12 376 -20 575 -3
72 -7 186 -10 255 -2 69 -7 172 -10 230 -3 58 -7 166 -10 240 -4 74 -8 169
-10 210 -3 41 -7 127 -10 190 -9 181 -14 252 -20 295 -11 67 -53 210 -95 318
-22 56 -40 114 -40 129 0 15 -9 34 -22 45 -13 10 -48 68 -78 128 -98 194 -263
456 -387 615 -202 258 -399 441 -558 516 -57 27 -156 57 -297 90 -10 2 -26 6
-35 9 -29 7 -347 86 -363 90 -8 2 -46 11 -85 20 -38 9 -77 18 -85 20 -8 2 -33
8 -55 13 -47 13 -36 10 -285 62 -107 22 -213 42 -235 45 -22 3 -51 8 -65 10
-14 2 -45 7 -70 10 -25 3 -56 8 -70 10 -14 3 -50 7 -80 10 -30 3 -71 7 -90 10
-116 13 -223 18 -448 20 -139 0 -254 0 -255 -1z m1720 -10500 c-3 -3 -12 -4
-19 -1 -8 3 -5 6 6 6 11 1 17 -2 13 -5z m-50 -10 c-3 -3 -12 -4 -19 -1 -8 3
-5 6 6 6 11 1 17 -2 13 -5z m-160 -30 c-3 -3 -12 -4 -19 -1 -8 3 -5 6 6 6 11
1 17 -2 13 -5z m733 -28 c0 -2 -8 -10 -17 -17 -16 -13 -17 -12 -4 4 13 16 21
21 21 13z m-30 -40 c0 -2 -8 -10 -17 -17 -16 -13 -17 -12 -4 4 13 16 21 21 21
13z m-40 -49 c0 -2 -10 -12 -22 -23 l-23 -19 19 23 c18 21 26 27 26 19z
m-1513 -43 c-3 -3 -12 -4 -19 -1 -8 3 -5 6 6 6 11 1 17 -2 13 -5z m1453 -27
c0 -2 -12 -14 -27 -28 l-28 -24 24 28 c23 25 31 32 31 24z m-1773 -33 c-3 -3
-12 -4 -19 -1 -8 3 -5 6 6 6 11 1 17 -2 13 -5z m1683 -67 c0 -2 -15 -16 -32
-33 l-33 -29 29 33 c28 30 36 37 36 29z m-320 -332 c-107 -107 -197 -195 -200
-195 -3 0 83 88 190 195 107 107 197 195 200 195 3 0 -83 -88 -190 -195z
m-1947 -190 c-3 -9 -8 -14 -10 -11 -3 3 -2 9 2 15 9 16 15 13 8 -4z m1647 -98
c0 -2 -19 -21 -42 -42 l-43 -40 40 43 c36 39 45 47 45 39z m-1770 -107 c-6
-11 -13 -20 -16 -20 -2 0 0 9 6 20 6 11 13 20 16 20 2 0 0 -9 -6 -20z m1609
-47 c-7 -10 -31 -34 -53 -52 -37 -32 -37 -31 9 17 52 55 63 63 44 35z m-169
-156 c0 -2 -19 -21 -42 -42 l-43 -40 40 43 c36 39 45 47 45 39z m-90 -91 c0
-2 -8 -10 -17 -17 -16 -13 -17 -12 -4 4 13 16 21 21 21 13z m-90 -79 c0 -1
-24 -25 -52 -52 l-53 -50 50 53 c46 48 55 57 55 49z m-180 -170 c0 -2 -19 -21
-42 -42 l-43 -40 40 43 c36 39 45 47 45 39z m-1447 -62 c-3 -9 -8 -14 -10 -11
-3 3 -2 9 2 15 9 16 15 13 8 -4z m1357 -29 c0 -2 -8 -10 -17 -17 -16 -13 -17
-12 -4 4 13 16 21 21 21 13z m-90 -79 c0 -2 -19 -21 -42 -42 l-43 -40 40 43
c36 39 45 47 45 39z m-1357 -42 c-3 -9 -8 -14 -10 -11 -3 3 -2 9 2 15 9 16 15
13 8 -4z m-33 -55 c-6 -11 -13 -20 -16 -20 -2 0 0 9 6 20 6 11 13 20 16 20 2
0 0 -9 -6 -20z m1210 -73 c0 -2 -19 -21 -42 -42 l-43 -40 40 43 c36 39 45 47
45 39z m2284 -79 c-3 -4 -11 -5 -19 -1 -21 7 -19 12 4 10 11 0 18 -5 15 -9z
m-34 -51 c0 -2 -10 -12 -22 -23 l-23 -19 19 23 c18 21 26 27 26 19z m-2470
-82 c-24 -25 -46 -45 -49 -45 -3 0 15 20 39 45 24 25 46 45 49 45 3 0 -15 -20
-39 -45z m2037 19 c-3 -3 -12 -4 -19 -1 -8 3 -5 6 6 6 11 1 17 -2 13 -5z m383
2 c0 -2 -8 -10 -17 -17 -16 -13 -17 -12 -4 4 13 16 21 21 21 13z m-50 -59 c0
-2 -15 -16 -32 -33 l-33 -29 29 33 c28 30 36 37 36 29z m-3590 -57 c-6 -11
-13 -20 -16 -20 -2 0 0 9 6 20 6 11 13 20 16 20 2 0 0 -9 -6 -20z m1080 -33
c0 -1 -28 -29 -62 -62 l-63 -60 60 63 c55 58 65 67 65 59z m2390 -40 c0 -1
-42 -43 -92 -92 l-93 -90 90 93 c83 85 95 97 95 89z m-1083 -43 c-3 -3 -12 -4
-19 -1 -8 3 -5 6 6 6 11 1 17 -2 13 -5z m-440 -70 c-3 -3 -12 -4 -19 -1 -8 3
-5 6 6 6 11 1 17 -2 13 -5z m-1070 -76 c-3 -8 -6 -5 -6 6 -1 11 2 17 5 13 3
-3 4 -12 1 -19z m556 5 c-7 -2 -19 -2 -25 0 -7 3 -2 5 12 5 14 0 19 -2 13 -5z
m-146 -19 c-3 -3 -12 -4 -19 -1 -8 3 -5 6 6 6 11 1 17 -2 13 -5z m1983 3 c0
-1 -51 -52 -112 -112 l-113 -110 110 113 c102 104 115 117 115 109z m-320
-310 c0 -1 -24 -25 -52 -52 l-53 -50 50 53 c46 48 55 57 55 49z m-161 -159
c-2 -2 -24 -21 -49 -43 l-45 -40 44 47 c25 26 47 45 50 43 2 -3 2 -6 0 -7z
m-129 -111 c0 -2 -15 -16 -32 -33 l-33 -29 29 33 c28 30 36 37 36 29z m-111
-109 c-2 -2 -17 -14 -34 -28 l-30 -25 24 28 c14 15 29 27 34 27 6 0 8 -1 6 -2z
m-852 -70 c-3 -8 -6 -5 -6 6 -1 11 2 17 5 13 3 -3 4 -12 1 -19z m-390 6 c-3
-3 -12 -4 -19 -1 -8 3 -5 6 6 6 11 1 17 -2 13 -5z m1133 -27 c0 -2 -15 -16
-32 -33 l-33 -29 29 33 c28 30 36 37 36 29z m-1633 -73 c-3 -3 -12 -4 -19 -1
-8 3 -5 6 6 6 11 1 17 -2 13 -5z m1553 2 c0 -2 -8 -10 -17 -17 -16 -13 -17
-12 -4 4 13 16 21 21 21 13z m-81 -69 c-2 -1 -13 -9 -24 -17 -19 -14 -19 -14
-6 3 7 9 18 17 24 17 6 0 8 -1 6 -3z m-59 -41 c0 -2 -8 -10 -17 -17 -16 -13
-17 -12 -4 4 13 16 21 21 21 13z m-2113 -32 c-3 -3 -12 -4 -19 -1 -8 3 -5 6 6
6 11 1 17 -2 13 -5z m2063 -8 c0 -2 -8 -10 -17 -17 -16 -13 -17 -12 -4 4 13
16 21 21 21 13z m-90 -69 c0 -2 -10 -12 -22 -23 l-23 -19 19 23 c18 21 26 27
26 19z m-2917 -42 c-3 -9 -8 -14 -10 -11 -3 3 -2 9 2 15 9 16 15 13 8 -4z
m2867 2 c0 -2 -10 -12 -22 -23 l-23 -19 19 23 c18 21 26 27 26 19z m-50 -41
c0 -2 -8 -10 -17 -17 -16 -13 -17 -12 -4 4 13 16 21 21 21 13z m-2846 -24 c3
-5 -1 -9 -9 -9 -8 0 -12 4 -9 9 3 4 7 8 9 8 2 0 6 -4 9 -8z m2706 -86 c0 -2
-8 -10 -17 -17 -16 -13 -17 -12 -4 4 13 16 21 21 21 13z m-50 -40 c0 -2 -8
-10 -17 -17 -16 -13 -17 -12 -4 4 13 16 21 21 21 13z m-50 -40 c0 -2 -8 -10
-17 -17 -16 -13 -17 -12 -4 4 13 16 21 21 21 13z m-81 -69 c-2 -1 -13 -9 -24
-17 -19 -14 -19 -14 -6 3 7 9 18 17 24 17 6 0 8 -1 6 -3z m-59 -41 c0 -2 -8
-10 -17 -17 -16 -13 -17 -12 -4 4 13 16 21 21 21 13z m-50 -40 c0 -2 -8 -10
-17 -17 -16 -13 -17 -12 -4 4 13 16 21 21 21 13z m-50 -40 c0 -2 -8 -10 -17
-17 -16 -13 -17 -12 -4 4 13 16 21 21 21 13z m-40 -30 c0 -2 -8 -10 -17 -17
-16 -13 -17 -12 -4 4 13 16 21 21 21 13z m-50 -40 c0 -2 -8 -10 -17 -17 -16
-13 -17 -12 -4 4 13 16 21 21 21 13z m-50 -40 c0 -2 -8 -10 -17 -17 -16 -13
-17 -12 -4 4 13 16 21 21 21 13z m-50 -40 c0 -2 -8 -10 -17 -17 -16 -13 -17
-12 -4 4 13 16 21 21 21 13z m-90 -69 c0 -2 -10 -12 -22 -23 l-23 -19 19 23
c18 21 26 27 26 19z m-50 -40 c0 -2 -10 -12 -22 -23 l-23 -19 19 23 c18 21 26
27 26 19z m-140 -111 c0 -2 -8 -10 -17 -17 -16 -13 -17 -12 -4 4 13 16 21 21
21 13z m-50 -40 c0 -2 -8 -10 -17 -17 -16 -13 -17 -12 -4 4 13 16 21 21 21 13z
m-100 -80 c0 -2 -8 -10 -17 -17 -16 -13 -17 -12 -4 4 13 16 21 21 21 13z m-40
-29 c0 -2 -10 -12 -22 -23 l-23 -19 19 23 c18 21 26 27 26 19z m-50 -41 c0 -2
-8 -10 -17 -17 -16 -13 -17 -12 -4 4 13 16 21 21 21 13z m-100 -80 c0 -2 -8
-10 -17 -17 -16 -13 -17 -12 -4 4 13 16 21 21 21 13z m-90 -70 c0 -2 -8 -10
-17 -17 -16 -13 -17 -12 -4 4 13 16 21 21 21 13z m-50 -40 c0 -2 -8 -10 -17
-17 -16 -13 -17 -12 -4 4 13 16 21 21 21 13z m-50 -40 c0 -2 -8 -10 -17 -17
-16 -13 -17 -12 -4 4 13 16 21 21 21 13z m-50 -40 c0 -2 -8 -10 -17 -17 -16
-13 -17 -12 -4 4 13 16 21 21 21 13z m-40 -30 c0 -2 -8 -10 -17 -17 -16 -13
-17 -12 -4 4 13 16 21 21 21 13z m-50 -39 c0 -2 -10 -12 -22 -23 l-23 -19 19
23 c18 21 26 27 26 19z m-50 -41 c0 -2 -8 -10 -17 -17 -16 -13 -17 -12 -4 4
13 16 21 21 21 13z m-50 -40 c0 -2 -8 -10 -17 -17 -16 -13 -17 -12 -4 4 13 16
21 21 21 13z m-90 -69 c0 -2 -10 -12 -22 -23 l-23 -19 19 23 c18 21 26 27 26
19z m-50 -41 c0 -2 -8 -10 -17 -17 -16 -13 -17 -12 -4 4 13 16 21 21 21 13z
m-50 -40 c0 -2 -8 -10 -17 -17 -16 -13 -17 -12 -4 4 13 16 21 21 21 13z m-81
-69 c-2 -1 -15 -11 -29 -22 l-25 -20 19 23 c11 12 24 22 29 22 6 0 8 -1 6 -3z
m-59 -41 c0 -2 -8 -10 -17 -17 -16 -13 -17 -12 -4 4 13 16 21 21 21 13z m-50
-40 c0 -2 -8 -10 -17 -17 -16 -13 -17 -12 -4 4 13 16 21 21 21 13z m-50 -40
c0 -2 -8 -10 -17 -17 -16 -13 -17 -12 -4 4 13 16 21 21 21 13z m-40 -29 c0 -2
-10 -12 -22 -23 l-23 -19 19 23 c18 21 26 27 26 19z m-50 -41 c0 -2 -8 -10
-17 -17 -16 -13 -17 -12 -4 4 13 16 21 21 21 13z m-50 -40 c0 -2 -8 -10 -17
-17 -16 -13 -17 -12 -4 4 13 16 21 21 21 13z m-50 -40 c0 -2 -8 -10 -17 -17
-16 -13 -17 -12 -4 4 13 16 21 21 21 13z m-81 -69 c-2 -1 -13 -9 -24 -17 -19
-14 -19 -14 -6 3 7 9 18 17 24 17 6 0 8 -1 6 -3z m-59 -41 c0 -2 -8 -10 -17
-17 -16 -13 -17 -12 -4 4 13 16 21 21 21 13z m-50 -39 c0 -2 -10 -12 -22 -23
l-23 -19 19 23 c18 21 26 27 26 19z m-50 -41 c0 -2 -8 -10 -17 -17 -16 -13
-17 -12 -4 4 13 16 21 21 21 13z m-40 -30 c0 -2 -8 -10 -17 -17 -16 -13 -17
-12 -4 4 13 16 21 21 21 13z m-50 -40 c0 -2 -8 -10 -17 -17 -16 -13 -17 -12
-4 4 13 16 21 21 21 13z m-50 -40 c0 -2 -8 -10 -17 -17 -16 -13 -17 -12 -4 4
13 16 21 21 21 13z m-81 -69 c-2 -1 -13 -9 -24 -17 -19 -14 -19 -14 -6 3 7 9
18 17 24 17 6 0 8 -1 6 -3z m-59 -40 c0 -2 -10 -12 -22 -23 l-23 -19 19 23
c18 21 26 27 26 19z m-50 -41 c0 -2 -8 -10 -17 -17 -16 -13 -17 -12 -4 4 13
16 21 21 21 13z m-50 -39 c0 -2 -10 -12 -22 -23 l-23 -19 19 23 c18 21 26 27
26 19z m-100 -84 c-14 -9 -35 -25 -47 -36 -13 -11 -23 -18 -23 -15 0 9 46 55
61 61 28 11 33 7 9 -10z"/>
</g>
</svg>
